<mxfile host="app.diagrams.net" agent="Mozilla/5.0 (Windows NT 10.0; Win64; x64) AppleWebKit/537.36 (KHTML, like Gecko) Chrome/128.0.0.0 YaBrowser/24.10.0.0 Safari/537.36" version="25.0.1">
  <diagram name="Page-1" id="Page-1">
    <mxGraphModel dx="1386" dy="791" grid="1" gridSize="10" guides="1" tooltips="1" connect="1" arrows="1" fold="1" page="1" pageScale="1" pageWidth="1442" pageHeight="2040" math="0" shadow="0">
      <root>
        <mxCell id="0" />
        <mxCell id="1" parent="0" />
        <mxCell id="VqpsMYB4FikPHu4dBH60-25" value="" style="endArrow=classic;html=1;rounded=0;" edge="1" parent="1" target="7">
          <mxGeometry width="50" height="50" relative="1" as="geometry">
            <mxPoint x="660" y="570" as="sourcePoint" />
            <mxPoint x="710" y="520" as="targetPoint" />
          </mxGeometry>
        </mxCell>
        <mxCell id="2" value="Background" parent="0" />
        <mxCell id="3" value="&lt;font style=&quot;font-size:13px;font-family:Times New Roman;color:#000000;direction:ltr;letter-spacing:0px;line-height:120.00001%;opacity:1&quot;&gt;Начало&lt;/font&gt;" style="verticalAlign=middle;align=center;vsdxID=1;fillColor=#ffffff;gradientColor=none;shape=stencil(pZDBDsIgEER/ZbN3UjTpDfiXjd0WIkKzoG3/vmiN8eTF02ZeZieZMcXTzFCq5CsvYajeYkieJVR0ZszCk+R7GpyZqXpnbvnBsFpUGmGz2GvsnCG5gDR47hFkO26TJ/0xwapoDUVJrlRDThYbiyQTq/asxkhT8yOUhXl+y1/R6v/k7ig0hhiP9k/2Xbh7TeN2);strokeColor=#000000;spacingTop=-3;spacingBottom=-3;spacingLeft=-3;spacingRight=-3;labelBackgroundColor=none;rounded=0;html=1;whiteSpace=wrap;" parent="2" vertex="1">
          <mxGeometry x="555" y="45" width="210" height="60" as="geometry" />
        </mxCell>
        <mxCell id="4" value="&lt;font style=&quot;font-size:13px;font-family:Times New Roman;color:#000000;direction:ltr;letter-spacing:0px;line-height:120.00001%;opacity:1&quot;&gt;Объявление переменной типа string&lt;/font&gt;&lt;div&gt;&lt;font style=&quot;font-size:13px;font-family:Times New Roman;color:#000000;direction:ltr;letter-spacing:0px;line-height:120.00001%;opacity:1&quot;&gt;&quot;Тр_пинка, зап__х, жур__вли, д__лёкая, _сенние, схв__тил, д_лина&quot;&amp;nbsp;&lt;/font&gt;&lt;/div&gt;" style="verticalAlign=middle;align=center;vsdxID=2;fillColor=#ffffff;gradientColor=none;shape=stencil(bY5bCsIwEEW3EmYBzZRCVZjMXgqdmsGYlDRWu3sx/fH1ey6ce2jxwyxmKTld5K5j8Q40eslagGlKWc453eLINA/FM13TKubhAMFsDlpEsExBY4UtNt2hDl8Yf+Hx1PTdP8mH2e6vk4awJ77Ye5Wt/fwE);strokeColor=#000000;spacingTop=-3;spacingBottom=-3;spacingLeft=-3;spacingRight=-3;labelBackgroundColor=none;rounded=0;html=1;whiteSpace=wrap;" parent="2" vertex="1">
          <mxGeometry x="555" y="150" width="210" height="60" as="geometry" />
        </mxCell>
        <mxCell id="5" value="&lt;font style=&quot;font-size:13px;font-family:Times New Roman;color:#000000;direction:ltr;letter-spacing:0px;line-height:120.00001%;opacity:1&quot;&gt;Выполняем замену одних символов на другие посредством обёртывания&lt;/font&gt;&lt;div&gt;&lt;font style=&quot;font-size:13px;font-family:Times New Roman;color:#000000;direction:ltr;letter-spacing:0px;line-height:120.00001%;opacity:1&quot;&gt;.Replace(&quot;_&quot;, &quot;о&quot;)&amp;nbsp;&lt;/font&gt;&lt;/div&gt;" style="verticalAlign=middle;align=center;vsdxID=3;fillColor=#ffffff;gradientColor=none;shape=stencil(bY5bCsIwEEW3EmYBzZRCVZjMXgqdmsGYlDRWu3sx/fH1ey6ce2jxwyxmKTld5K5j8Q40eslagGlKWc453eLINA/FM13TKubhAMFsDlpEsExBY4UtNt2hDl8Yf+Hx1PTdP8mH2e6vk4awJ77Ye5Wt/fwE);strokeColor=#000000;spacingTop=-3;spacingBottom=-3;spacingLeft=-3;spacingRight=-3;labelBackgroundColor=none;rounded=0;html=1;whiteSpace=wrap;" parent="2" vertex="1">
          <mxGeometry x="555" y="255" width="210" height="60" as="geometry" />
        </mxCell>
        <mxCell id="7" value="&lt;font style=&quot;font-size:13px;font-family:Times New Roman;color:#000000;direction:ltr;letter-spacing:0px;line-height:120.00001%;opacity:1&quot;&gt;Конец&lt;/font&gt;" style="verticalAlign=middle;align=center;vsdxID=5;fillColor=#ffffff;gradientColor=none;shape=stencil(pZDBDsIgEER/ZbN3UjTpDfiXjd0WIkKzoG3/vmiN8eTF02ZeZieZMcXTzFCq5CsvYajeYkieJVR0ZszCk+R7GpyZqXpnbvnBsFpUGmGz2GvsnCG5gDR47hFkO26TJ/0xwapoDUVJrlRDThYbiyQTq/asxkhT8yOUhXl+y1/R6v/k7ig0hhiP9k/2Xbh7TeN2);strokeColor=#000000;spacingTop=-3;spacingBottom=-3;spacingLeft=-3;spacingRight=-3;labelBackgroundColor=none;rounded=0;html=1;whiteSpace=wrap;" parent="2" vertex="1">
          <mxGeometry x="555" y="630" width="210" height="80" as="geometry" />
        </mxCell>
        <mxCell id="14" value="&lt;font style=&quot;font-size:13px;font-family:Times New Roman;color:#000000;direction:ltr;letter-spacing:0px;line-height:120.00001%;opacity:1&quot;&gt;Console.WriteLine(&amp;quot;Исходная строка: &amp;quot; + text);&lt;/font&gt;&lt;font style=&quot;font-size:13px;font-family:Times New Roman;color:#000000;direction:ltr;letter-spacing:0px;line-height:120.00001%;opacity:1&quot;&gt;Console.WriteLine(&amp;quot;Результат: &amp;quot; + result);&lt;/font&gt;" style="verticalAlign=middle;align=center;vsdxID=14;fillColor=#ffffff;gradientColor=none;shape=stencil(fZDdCgIhEEZfReYFXAVpL9R3EXRTMt1ct+zt86egKLqZgcOB+b7hm1WrQVtO8WRuTmcrwAVrkssg+RKTOaa4By35qrKV/ByvBhUBE6B7m1hy70JHZPoDZ9boZVcaFSLgwCqtm82ACq27WfRLo0+NEDq8D+11Y1wgP1iPgkfyxXk/ajb23gz3H8gH);strokeColor=#000000;spacingTop=-3;spacingBottom=-3;spacingLeft=-3;spacingRight=-3;labelBackgroundColor=none;rounded=0;html=1;whiteSpace=wrap;" parent="2" vertex="1">
          <mxGeometry x="555" y="470" width="210" height="120" as="geometry" />
        </mxCell>
        <mxCell id="VqpsMYB4FikPHu4dBH60-23" value="" style="edgeStyle=orthogonalEdgeStyle;rounded=0;orthogonalLoop=1;jettySize=auto;html=1;" edge="1" parent="2" source="15" target="14">
          <mxGeometry relative="1" as="geometry" />
        </mxCell>
        <mxCell id="15" value="&lt;font style=&quot;font-size:13px;font-family:Times New Roman;color:#000000;direction:ltr;letter-spacing:0px;line-height:120.00001%;opacity:1&quot;&gt;Выполняем замену уже изменённых символов на другие посредством обёртывания&lt;/font&gt;&lt;div&gt;&lt;font style=&quot;direction: ltr; line-height: 120%; opacity: 1;&quot;&gt;&lt;font face=&quot;Times New Roman&quot;&gt;&lt;span style=&quot;font-size: 13px;&quot;&gt;.Replace(&quot;оо&quot;, &quot;а&quot;)&lt;/span&gt;&lt;/font&gt;&lt;br&gt;&lt;/font&gt;&lt;/div&gt;" style="verticalAlign=middle;align=center;vsdxID=15;fillColor=#ffffff;gradientColor=none;shape=stencil(bc5hCoMwDIbhq5QcwNbhQCHNXQTjGqyt1M7N2w/rn8n29yF8eXF1/cJqzSlO/JIhOwsSHCfJQDjGxI8Un2EgXPrsCOe4sXpbMKB2C7UxoAm9hIJddb8Vv+hx9IOdqZr238ZlWJ9PR/H+LDzsO0qXfPoA);strokeColor=#000000;spacingTop=-3;spacingBottom=-3;spacingLeft=-3;spacingRight=-3;labelBackgroundColor=none;rounded=0;html=1;whiteSpace=wrap;" parent="2" vertex="1">
          <mxGeometry x="555" y="360" width="210" height="60" as="geometry" />
        </mxCell>
        <mxCell id="17" style="vsdxID=6;edgeStyle=none;startArrow=none;endArrow=classic;startSize=5;endSize=5;strokeColor=#000000;spacingTop=0;spacingBottom=0;spacingLeft=0;spacingRight=0;verticalAlign=middle;html=1;labelBackgroundColor=#ffffff;rounded=0;exitX=0.5;exitY=1;exitDx=0;exitDy=0;exitPerimeter=0;entryX=0.5;entryY=0;entryDx=0;entryDy=0;entryPerimeter=0" parent="2" source="3" target="4" edge="1">
          <mxGeometry relative="1" as="geometry">
            <mxPoint x="660" y="105" as="sourcePoint" />
            <mxPoint x="660" y="150" as="targetPoint" />
            <Array capacity="4" as="points" />
            <mxPoint y="124" as="offset" />
          </mxGeometry>
        </mxCell>
        <mxCell id="18" style="vsdxID=17;edgeStyle=none;startArrow=none;endArrow=classic;startSize=5;endSize=5;strokeColor=#000000;spacingTop=0;spacingBottom=0;spacingLeft=0;spacingRight=0;verticalAlign=middle;html=1;labelBackgroundColor=#ffffff;rounded=0;exitX=0.5;exitY=1;exitDx=0;exitDy=0;exitPerimeter=0;entryX=0.5;entryY=0;entryDx=0;entryDy=0;entryPerimeter=0" parent="2" source="4" target="5" edge="1">
          <mxGeometry relative="1" as="geometry">
            <mxPoint x="660" y="210" as="sourcePoint" />
            <mxPoint x="660" y="255" as="targetPoint" />
            <Array capacity="4" as="points" />
            <mxPoint y="124" as="offset" />
          </mxGeometry>
        </mxCell>
        <mxCell id="19" style="vsdxID=18;edgeStyle=none;startArrow=none;endArrow=classic;startSize=5;endSize=5;strokeColor=#000000;spacingTop=0;spacingBottom=0;spacingLeft=0;spacingRight=0;verticalAlign=middle;html=1;labelBackgroundColor=#ffffff;rounded=0;exitX=0.5;exitY=1;exitDx=0;exitDy=0;exitPerimeter=0;entryX=0.5;entryY=0;entryDx=0;entryDy=0;entryPerimeter=0" parent="2" source="5" target="15" edge="1">
          <mxGeometry relative="1" as="geometry">
            <mxPoint x="660" y="315" as="sourcePoint" />
            <mxPoint x="660" y="360" as="targetPoint" />
            <Array capacity="4" as="points" />
            <mxPoint y="124" as="offset" />
          </mxGeometry>
        </mxCell>
      </root>
    </mxGraphModel>
  </diagram>
</mxfile>
